<?xml version="1.0" encoding="utf-8"?>
<!-- Generator: Adobe Illustrator 24.0.2, SVG Export Plug-In . SVG Version: 6.00 Build 0)  -->
<svg version="1.1" id="artwork" xmlns="http://www.w3.org/2000/svg" xmlns:xlink="http://www.w3.org/1999/xlink" x="0px" y="0px" width="135px" height="40px"
	 viewBox="0 0 135 38.74" style="enable-background:new 0 0 135 38.74;" xml:space="preserve">
<style type="text/css">
	.st0{fill:#FFFFFF;stroke:#FFFFFF;stroke-width:0.2;stroke-miterlimit:10;}
	.st1{fill:#FFFFFF;}
	.st2{fill:#999B9E;}
	.st3{fill:#D1D3D4;}
	.st4{opacity:0.2;enable-background:new    ;}
	.st5{opacity:0.12;enable-background:new    ;}
	.st6{opacity:0.25;fill:#FFFFFF;enable-background:new    ;}
</style>
<path d="M135,34.86c0,2.15-1.74,3.88-3.89,3.88H3.89C1.74,38.74,0,37,0,34.86V3.89C0,1.74,1.74,0,3.89,0h127.22
	c2.15,0,3.89,1.74,3.89,3.89L135,34.86L135,34.86z"/>
<g>
	<path class="st0" d="M47.42,9.61c0,0.84-0.25,1.51-0.75,2c-0.56,0.59-1.3,0.89-2.2,0.89c-0.87,0-1.6-0.3-2.21-0.9
		c-0.61-0.6-0.91-1.35-0.91-2.23c0-0.89,0.3-1.63,0.91-2.23c0.61-0.6,1.34-0.9,2.21-0.9c0.43,0,0.84,0.08,1.23,0.25
		c0.39,0.17,0.7,0.39,0.94,0.67l-0.53,0.53c-0.4-0.47-0.94-0.71-1.64-0.71c-0.63,0-1.18,0.22-1.64,0.67
		c-0.46,0.44-0.69,1.02-0.69,1.73s0.23,1.29,0.69,1.73c0.46,0.44,1.01,0.67,1.64,0.67c0.67,0,1.23-0.22,1.68-0.67
		c0.29-0.29,0.46-0.7,0.5-1.22h-2.18V9.16h2.91C47.4,9.32,47.42,9.47,47.42,9.61z"/>
	<path class="st0" d="M52.03,7.11H49.3v1.9h2.46v0.72H49.3v1.9h2.73v0.74h-3.5v-6h3.5V7.11z"/>
	<path class="st0" d="M55.28,12.37h-0.77V7.11h-1.68V6.37h4.12v0.74h-1.68V12.37z"/>
	<path class="st0" d="M59.94,12.37v-6h0.77v6H59.94z"/>
	<path class="st0" d="M64.13,12.37h-0.77V7.11h-1.68V6.37h4.12v0.74h-1.68V12.37z"/>
	<path class="st0" d="M73.61,11.59c-0.59,0.61-1.32,0.91-2.2,0.91c-0.88,0-1.61-0.3-2.2-0.91c-0.59-0.61-0.88-1.35-0.88-2.22
		s0.29-1.62,0.88-2.22c0.59-0.61,1.32-0.91,2.2-0.91c0.87,0,1.6,0.3,2.2,0.91c0.59,0.61,0.89,1.35,0.89,2.22
		C74.49,10.25,74.2,10.99,73.61,11.59z M69.78,11.09c0.44,0.45,0.99,0.67,1.63,0.67c0.64,0,1.19-0.22,1.63-0.67
		c0.44-0.45,0.67-1.02,0.67-1.72s-0.22-1.27-0.67-1.72c-0.44-0.45-0.99-0.67-1.63-0.67c-0.64,0-1.19,0.22-1.63,0.67
		c-0.44,0.45-0.67,1.02-0.67,1.72S69.34,10.64,69.78,11.09z"/>
	<path class="st0" d="M75.58,12.37v-6h0.94l2.92,4.67h0.03l-0.03-1.16V6.37h0.77v6h-0.8l-3.05-4.89h-0.03l0.03,1.16v3.74H75.58z"/>
</g>
<path class="st1" d="M68.14,21.12c-2.35,0-4.27,1.79-4.27,4.25c0,2.45,1.92,4.25,4.27,4.25c2.35,0,4.27-1.8,4.27-4.25
	C72.41,22.91,70.49,21.12,68.14,21.12z M68.14,27.95c-1.29,0-2.4-1.06-2.4-2.58c0-1.53,1.11-2.58,2.4-2.58c1.29,0,2.4,1.05,2.4,2.58
	C70.54,26.89,69.42,27.95,68.14,27.95z M58.82,21.12c-2.35,0-4.27,1.79-4.27,4.25c0,2.45,1.92,4.25,4.27,4.25
	c2.35,0,4.27-1.8,4.27-4.25C63.09,22.91,61.17,21.12,58.82,21.12z M58.82,27.95c-1.29,0-2.4-1.06-2.4-2.58
	c0-1.53,1.11-2.58,2.4-2.58c1.29,0,2.4,1.05,2.4,2.58C61.22,26.89,60.11,27.95,58.82,27.95z M47.74,22.43v1.8h4.32
	c-0.13,1.01-0.47,1.76-0.98,2.27c-0.63,0.63-1.61,1.32-3.33,1.32c-2.66,0-4.74-2.14-4.74-4.8s2.08-4.8,4.74-4.8
	c1.43,0,2.48,0.56,3.25,1.29l1.27-1.27c-1.08-1.03-2.51-1.82-4.53-1.82c-3.64,0-6.7,2.96-6.7,6.61c0,3.64,3.06,6.61,6.7,6.61
	c1.97,0,3.45-0.64,4.61-1.85c1.19-1.19,1.56-2.87,1.56-4.22c0-0.42-0.03-0.81-0.1-1.13H47.74z M93.05,23.83
	c-0.35-0.95-1.43-2.71-3.64-2.71c-2.19,0-4.01,1.72-4.01,4.25c0,2.38,1.8,4.25,4.22,4.25c1.95,0,3.08-1.19,3.54-1.88l-1.45-0.97
	c-0.48,0.71-1.14,1.18-2.09,1.18c-0.95,0-1.63-0.43-2.06-1.29l5.69-2.35L93.05,23.83z M87.25,25.25c-0.05-1.64,1.27-2.48,2.22-2.48
	c0.74,0,1.37,0.37,1.58,0.9L87.25,25.25z M82.63,29.37h1.87v-12.5h-1.87V29.37z M79.57,22.07H79.5c-0.42-0.5-1.22-0.95-2.24-0.95
	c-2.13,0-4.08,1.87-4.08,4.27c0,2.38,1.95,4.24,4.08,4.24c1.01,0,1.82-0.45,2.24-0.97h0.06v0.61c0,1.63-0.87,2.5-2.27,2.5
	c-1.14,0-1.85-0.82-2.14-1.51l-1.63,0.68c0.47,1.13,1.71,2.51,3.77,2.51c2.19,0,4.04-1.29,4.04-4.43v-7.64h-1.77V22.07z
	 M77.42,27.95c-1.29,0-2.37-1.08-2.37-2.56c0-1.5,1.08-2.59,2.37-2.59c1.27,0,2.27,1.1,2.27,2.59C79.7,26.87,78.7,27.95,77.42,27.95
	z M101.81,16.87h-4.47v12.5h1.87v-4.74h2.61c2.07,0,4.1-1.5,4.1-3.88S103.87,16.87,101.81,16.87z M101.85,22.89H99.2v-4.29h2.65
	c1.4,0,2.19,1.16,2.19,2.14C104.04,21.72,103.25,22.89,101.85,22.89z M113.39,21.1c-1.35,0-2.75,0.6-3.33,1.91l1.66,0.69
	c0.35-0.69,1.01-0.92,1.7-0.92c0.97,0,1.95,0.58,1.96,1.61v0.13c-0.34-0.19-1.06-0.48-1.95-0.48c-1.79,0-3.6,0.98-3.6,2.81
	c0,1.67,1.46,2.75,3.1,2.75c1.25,0,1.95-0.56,2.38-1.22h0.06v0.97h1.8v-4.79C117.18,22.34,115.52,21.1,113.39,21.1z M113.16,27.95
	c-0.61,0-1.46-0.31-1.46-1.06c0-0.96,1.06-1.33,1.98-1.33c0.82,0,1.21,0.18,1.7,0.42C115.24,27.13,114.24,27.95,113.16,27.95z
	 M123.74,21.37l-2.14,5.42h-0.06l-2.22-5.42h-2.01l3.33,7.58l-1.9,4.21h1.95l5.13-11.79H123.74z M106.94,29.37h1.87v-12.5h-1.87
	V29.37z"/>
<g>
	<path class="st2" d="M10.44,6.91c-0.29,0.31-0.46,0.79-0.46,1.4v22.12c0,0.62,0.17,1.1,0.46,1.4l0.07,0.07L22.9,19.52v-0.15v-0.15
		L10.51,6.83L10.44,6.91z"/>
	<path class="st1" d="M27.03,23.65l-4.13-4.13v-0.15v-0.15l4.13-4.13l0.09,0.05l4.89,2.78c1.4,0.79,1.4,2.09,0,2.89l-4.89,2.78
		L27.03,23.65z"/>
	<path class="st3" d="M27.12,23.59l-4.22-4.22L10.44,31.83c0.46,0.49,1.22,0.55,2.08,0.06L27.12,23.59"/>
	<path class="st3" d="M27.12,15.15l-14.61-8.3c-0.86-0.49-1.62-0.43-2.08,0.06L22.9,19.37L27.12,15.15z"/>
	<g>
		<path class="st4" d="M27.03,23.5l-14.52,8.25c-0.81,0.46-1.54,0.43-2,0.01l0,0l-0.07,0.07l0,0l0.07,0.07l0,0
			c0.47,0.42,1.19,0.45,2-0.01l14.61-8.3L27.03,23.5z"/>
		<path class="st5" d="M10.44,31.69c-0.29-0.31-0.46-0.79-0.46-1.4v0.15c0,0.62,0.17,1.1,0.46,1.4l0.07-0.07L10.44,31.69z"/>
	</g>
	<path class="st5" d="M32.01,20.67l-4.99,2.83l0.09,0.09l4.89-2.78c0.7-0.4,1.05-0.92,1.05-1.44l0,0
		C33,19.84,32.65,20.31,32.01,20.67z"/>
	<path class="st6" d="M12.51,6.99l19.5,11.08c0.63,0.36,0.99,0.82,1.05,1.3l0,0c0-0.52-0.35-1.05-1.05-1.44L12.51,6.85
		c-1.4-0.79-2.54-0.13-2.54,1.47v0.15C9.97,6.86,11.12,6.2,12.51,6.99z"/>
</g>
</svg>
